<svg xmlns="http://www.w3.org/2000/svg" viewBox="0 0 100 100">
  <rect width="100" height="100" fill="#10B981" rx="20"/>
  <g fill="white">
    <!-- Dollar sign -->
    <path d="M50 20 L50 80 M35 30 Q35 25 40 25 L60 25 Q65 25 65 30 Q65 35 60 35 L40 35 M35 50 L60 50 Q65 50 65 55 Q65 60 60 60 L40 60 Q35 60 35 65 Q35 70 40 70 L60 70 Q65 70 65 75" stroke="white" stroke-width="4" fill="none" stroke-linecap="round"/>
    <!-- AI circuit nodes -->
    <circle cx="25" cy="45" r="3" opacity="0.6"/>
    <circle cx="75" cy="45" r="3" opacity="0.6"/>
    <circle cx="25" cy="55" r="3" opacity="0.6"/>
    <circle cx="75" cy="55" r="3" opacity="0.6"/>
  </g>
</svg>
